<?xml version="1.0" encoding="utf-8"?>
<!-- Generator: Adobe Illustrator 17.1.0, SVG Export Plug-In . SVG Version: 6.00 Build 0)  -->
<!DOCTYPE svg PUBLIC "-//W3C//DTD SVG 1.1//EN" "http://www.w3.org/Graphics/SVG/1.1/DTD/svg11.dtd">
<svg version="1.1" id="图层_1" xmlns="http://www.w3.org/2000/svg" xmlns:xlink="http://www.w3.org/1999/xlink" x="0px" y="0px"
	 viewBox="0 0 17 17" enable-background="new 0 0 17 17" xml:space="preserve" width="17px" height="17px">
<g>
	<path fill-rule="evenodd" clip-rule="evenodd" fill="#4c4658" d="M8.5,2.7H1.1v13.3h12.2V9.2l1.1-1v7.8c0,0.6-0.5,1.1-1.1,1.1H1.1
		C0.5,17,0,16.5,0,15.9V2.7c0-0.6,0.5-1.1,1.1-1.1h8.5l0,0L8.5,2.7z"/>
	<path fill="#4c4658" d="M14.6,1.1c0.3,0,0.6,0.1,0.8,0.4c0.3,0.3,0.5,0.6,0.5,0.9c0,0.3-0.2,0.6-0.5,1c-0.3,0.3-2.6,2.6-6.9,6.8
		l-0.3,0.3c-0.5,0.2-1.7,0.5-2.5,0.8C6,10.3,6.3,9.2,6.5,8.7c0.9-0.9,6.9-6.9,7.2-7.2C13.7,1.5,14.1,1.1,14.6,1.1 M14.6,0
		c-0.9,0-1.5,0.6-1.7,0.7C12.6,1,5.6,8,5.6,8C5.6,8.1,5.5,8.1,5.5,8.2C5.3,8.9,4.3,12,4.3,12.1c0,0.2,0,0.3,0.1,0.5
		c0.1,0.1,0.2,0.1,0.3,0.1c0,0,0.1,0,0.1,0c0,0,3.3-1.1,3.8-1.2c0.1,0,0.1-0.1,0.2-0.1c0.3-0.3,6.8-6.7,7.3-7.2
		C16.7,3.5,17,2.9,17,2.4c0-0.6-0.3-1.1-0.8-1.7C15.7,0.2,15.2,0,14.6,0L14.6,0z"/>
</g>
</svg>
