<?xml version="1.0" encoding="utf-8"?>
<!-- Generator: Adobe Illustrator 17.1.0, SVG Export Plug-In . SVG Version: 6.00 Build 0)  -->
<!DOCTYPE svg PUBLIC "-//W3C//DTD SVG 1.1//EN" "http://www.w3.org/Graphics/SVG/1.1/DTD/svg11.dtd">
<svg version="1.1" id="图层_1" xmlns="http://www.w3.org/2000/svg" xmlns:xlink="http://www.w3.org/1999/xlink" x="0px" y="0px"
	 viewBox="0 0 103 115" enable-background="new 0 0 103 115" xml:space="preserve" width="110px" height="110px">
<g>
	<path fill="#D3D3D4" d="M72,45.5c-1.4,0-2.5-1.1-2.5-2.5v-9.5c0-8.7-6.1-15.5-15.1-15.5c-9.1,0-14.9,6.9-14.9,15.5V43
		c0,1.4-1.1,2.5-2.5,2.5c-1.4,0-2.5-1.1-2.5-2.5v-9.5c0-11.3,8.1-20.5,19.9-20.5c11.8,0,20.1,9,20.1,20.5V43
		C74.5,44.4,73.4,45.5,72,45.5z"/>
	<path fill="#D3D3D4" d="M77,93H32c-5.5,0-10-4.5-10-10V53c0-5.5,4.5-10,10-10h45c5.5,0,10,4.5,10,10v30C87,88.5,82.5,93,77,93z
		 M32,48c-2.8,0-5,2.2-5,5v30c0,2.8,2.2,5,5,5h45c2.8,0,5-2.2,5-5V53c0-2.8-2.2-5-5-5H32z"/>
	<path fill-rule="evenodd" clip-rule="evenodd" fill="#D3D3D4" d="M54.5,58c2.8,0,5,2.2,5,5c0,2.8-2.2,5-5,5c-2.8,0-5-2.2-5-5
		C49.5,60.2,51.7,58,54.5,58z"/>
	<path fill-rule="evenodd" clip-rule="evenodd" fill="#D3D3D4" d="M54.5,63c1.4,0,2.5,1.1,2.5,2.5v10c0,1.4-1.1,2.5-2.5,2.5
		S52,76.9,52,75.5v-10C52,64.1,53.1,63,54.5,63z"/>
</g>
</svg>
