<?xml version="1.0" encoding="utf-8"?>
<!-- Generator: Adobe Illustrator 17.1.0, SVG Export Plug-In . SVG Version: 6.00 Build 0)  -->
<!DOCTYPE svg PUBLIC "-//W3C//DTD SVG 1.1//EN" "http://www.w3.org/Graphics/SVG/1.1/DTD/svg11.dtd">
<svg version="1.1" id="图层_1" xmlns="http://www.w3.org/2000/svg" xmlns:xlink="http://www.w3.org/1999/xlink" x="0px" y="0px"
	 viewBox="0 0 103 103" enable-background="new 0 0 103 103" xml:space="preserve" width="102px" height="102px">
<path fill="#D3D3D4" d="M59,91.5c-22.7,0-22.9-0.9-25.7-3.1c-1.5-1.1-4.3-1.9-14.6-2.6c-0.7,0-1.5-0.3-1.9-0.9
	c-0.2-0.3-5.4-7.8-5.4-19.8c0-11.8,3.7-17.2,3.8-17.5c0.5-0.7,1.3-1.2,2.1-1.2c8.4,0,20.1-10.8,28-29.6c1.4-3.3,1.6-5.4,6.6-5.4
	c2.8,0,6,2,7.6,4.6c3.2,5.3,1.6,16.8,0.1,22.9c5.2,0,14.5-0.1,18.9-0.1c6.2,0,10.3,3.7,10.4,9.1c0,1.8-0.2,4-0.7,5.2
	c1.4,1.4,3.1,3.4,3.2,6c0.1,3.4-2.1,6-3.5,7.5c0.3,1,1,2.3,0.9,3.9c-0.2,3.9-3.1,6.3-5,7.6c0.2,1.1,0.3,3-0.1,4.6
	C82.5,89,73.5,91.5,59,91.5z M20.1,80.8c8.9,0.7,13.7,1.7,16.3,3.6c2,1.5,1.7,2.1,22.7,2.1c6.4,0,19-0.3,19.9-4.7
	c0.4-1.8-1.5-3.5-1.5-3.5C77,77,77.5,75.6,78.8,75c0,0,5-1.8,5.1-4.6c0.1-1.8-1.1-2.9-1.2-2.9c-0.7-1.1-0.5-2.7,0.6-3.4
	c0,0,3.2-2,3.2-4.6c-0.1-2.1-2.9-3.6-2.9-3.7c-0.6-0.4-1.1-1-1.2-1.7c-0.1-0.7,0-1.4,0.5-2c0,0,1.3-2,1.2-3.9
	c-0.1-4.1-4.5-4.2-5.4-4.2C72.3,44,56.2,44,56.2,44c-0.9,0-1.6-0.4-2.1-1.1c-0.5-0.7-0.5-1.6-0.2-2.4c2.4-7,3.8-18.1,1.5-21.8
	c-0.7-1.1-0.8-2.2-3.3-2.2c-0.3,0-1.2,0.3-2,2.3c-8.3,20-20.8,31.5-31,32.6c-0.9,2-2.5,6.2-2.5,13.7C16.5,72.9,18.9,78.8,20.1,80.8z
	"/>
</svg>
