<?xml version="1.0" encoding="utf-8"?>
<!-- Generator: Adobe Illustrator 17.1.0, SVG Export Plug-In . SVG Version: 6.00 Build 0)  -->
<!DOCTYPE svg PUBLIC "-//W3C//DTD SVG 1.1//EN" "http://www.w3.org/Graphics/SVG/1.1/DTD/svg11.dtd">
<svg version="1.1" id="图层_1" xmlns="http://www.w3.org/2000/svg" xmlns:xlink="http://www.w3.org/1999/xlink" x="0px" y="0px" viewBox="0 0 18 13" enable-background="new 0 0 18 13" xml:space="preserve" width="15.998px" height="11.991px">
<path fill="#4c4658" d="M15.6,2c0.3,0,0.5,0.2,0.5,0.5v8c0,0.3-0.2,0.5-0.5,0.5H2.4c-0.3,0-0.5-0.2-0.5-0.5v-8C1.9,2.2,2.1,2,2.4,2
	H15.6 M16.3,0H1.7C0.8,0,0,0.8,0,1.9v9.3c0,1,0.8,1.9,1.7,1.9h14.6c0.9,0,1.7-0.8,1.7-1.9V1.9C18,0.8,17.2,0,16.3,0L16.3,0z"/>
<path fill-rule="evenodd" clip-rule="evenodd" fill="#4c4658" d="M1.4,2.7h15.2v3.1H1.4V2.7z"/>
</svg>