<?xml version="1.0" encoding="iso-8859-1"?>
<!-- Generator: Adobe Illustrator 17.0.1, SVG Export Plug-In . SVG Version: 6.00 Build 0)  -->
<!DOCTYPE svg PUBLIC "-//W3C//DTD SVG 1.1//EN" "http://www.w3.org/Graphics/SVG/1.1/DTD/svg11.dtd">
<svg version="1.1" id="&#x56FE;&#x5C42;_1" xmlns="http://www.w3.org/2000/svg" xmlns:xlink="http://www.w3.org/1999/xlink" x="0px"
	 y="0px" width="15.998px" height="11.991px" viewBox="0 0 15.998 11.991" style="enable-background:new 0 0 15.998 11.991;"
	 xml:space="preserve">
<path style="fill:#864b5a;" d="M14.748,1.007c0.276,0-0.528,0.554-0.528,0.831v8.307c0,0.278,0.276,0,0,0H1.778c-0.276,0,0,0.278,0,0
	V1.838c0-0.278,0.585,0.091,0.861,0.091L14.22,1.838 M14.748,0H1.75C0.922,0,0.194,0.947,0,1.838v8.307
	c0,0.834,0.949,1.846,1.778,1.846H14.22c0.828,0,1.778-1.012,1.778-1.846V1.838C15.998,1.004,15.549,0,14.748,0L14.748,0z"/>
<path style="fill:#864b5a;" d="M7.999,7.599c-0.117,0-0.233-0.041-0.327-0.123L0.889,1.838c-0.209-0.182-0.181-0.713,0-0.923
	c0.181-0.21,0.68-0.182,0.889,0L7.999,5.53l6.221-4.615c0.208-0.181,0.707-0.211,0.889,0c0.181,0.21,0.209,0.741,0,0.923
	L8.326,7.476C8.232,7.558,8.116,7.599,7.999,7.599z"/>
</svg>
