<?xml version="1.0" encoding="utf-8"?>
<!-- Generator: Adobe Illustrator 17.1.0, SVG Export Plug-In . SVG Version: 6.00 Build 0)  -->
<!DOCTYPE svg PUBLIC "-//W3C//DTD SVG 1.1//EN" "http://www.w3.org/Graphics/SVG/1.1/DTD/svg11.dtd">
<svg version="1.1" id="图层_1" xmlns="http://www.w3.org/2000/svg" xmlns:xlink="http://www.w3.org/1999/xlink" x="0px" y="0px"
	 viewBox="0 0 17 14" enable-background="new 0 0 17 14" xml:space="preserve" width="17px" height="14px">
<g>
	<path fill-rule="evenodd" clip-rule="evenodd" fill="#FFF" d="M0.9,5.3h1.7C3,5.4,3.3,5.7,3.4,6.1v1.7C3.2,8.2,3.1,8.5,2.6,8.7
		H0.9C0.5,8.6,0.2,8.3,0,7.9V6.1C0.2,5.7,0.4,5.4,0.9,5.3z"/>
	<path fill-rule="evenodd" clip-rule="evenodd" fill="#FFF" d="M5.7,6.1h10.7C16.7,6.1,17,6.5,17,7c0,0.5-0.3,0.9-0.6,0.9H5.7
		C5.4,7.9,5.1,7.5,5.1,7C5.1,6.5,5.4,6.1,5.7,6.1z"/>
	<path fill-rule="evenodd" clip-rule="evenodd" fill="#FFF" d="M0.9,10.5h1.7C3,10.7,3.3,11,3.4,11.4v1.7
		c-0.2,0.4-0.3,0.6-0.8,0.9H0.9c-0.5-0.2-0.7-0.4-0.8-0.9v-1.7C0.2,10.9,0.4,10.7,0.9,10.5z"/>
	<path fill-rule="evenodd" clip-rule="evenodd" fill="#FFF" d="M5.7,11.4h10.7c0.3,0,0.6,0.4,0.6,0.9c0,0.5-0.3,0.9-0.6,0.9H5.7
		c-0.3,0-0.6-0.4-0.6-0.9C5.1,11.8,5.4,11.4,5.7,11.4z"/>
	<path fill-rule="evenodd" clip-rule="evenodd" fill="#FFF" d="M0.9,0h1.7C3,0.2,3.3,0.5,3.4,0.9v1.7C3.2,3,3.1,3.3,2.6,3.5H0.9
		C0.4,3.3,0.2,3.1,0,2.6V0.9C0,0.6,0.5,0.1,0.9,0z"/>
	<path fill-rule="evenodd" clip-rule="evenodd" fill="#FFF" d="M5.7,0.9h10.7c0.3,0,0.6,0.4,0.6,0.9c0,0.5-0.3,0.9-0.6,0.9H5.7
		c-0.3,0-0.6-0.4-0.6-0.9C5.1,1.3,5.4,0.9,5.7,0.9z"/>
</g>
</svg>
