<?xml version="1.0" encoding="iso-8859-1"?>
<!-- Generator: Adobe Illustrator 17.0.1, SVG Export Plug-In . SVG Version: 6.00 Build 0)  -->
<!DOCTYPE svg PUBLIC "-//W3C//DTD SVG 1.1//EN" "http://www.w3.org/Graphics/SVG/1.1/DTD/svg11.dtd">
<svg version="1.1" id="&#x56FE;&#x5C42;_1" xmlns="http://www.w3.org/2000/svg" xmlns:xlink="http://www.w3.org/1999/xlink" x="0px"
	 y="0px" width="15.013px" height="16.01px" viewBox="0 0 15.013 16.01" style="enable-background:new 0 0 15.013 16.01;"
	 xml:space="preserve">
<path style="fill:#FFFFFF;" d="M9.206,16.01c-0.106,0-0.212-0.033-0.303-0.097l-5.401-4.498L1.7,11.414
	c-0.922,0-1.672-0.689-1.672-1.534L0,6.321c0-0.76,0.749-1.736,1.671-1.736l1.803-0.001l5.429-4.486
	C9.07-0.021,9.284-0.032,9.46,0.067c0.176,0.099,0.287,0.292,0.287,0.503v14.871c0,0.211-0.11,0.404-0.287,0.503
	C9.38,15.988,9.293,16.01,9.206,16.01z M8.104,2.852L4.096,6.079C4.02,6.13,3.931,6.157,3.84,6.157L2.17,6.158
	c-0.295,0-0.501,0.168-0.501,0.319l0.025,3.042c0,0.155,0.206,0.324,0.5,0.324l1.67,0.001c0.091,0,0.181,0.027,0.257,0.079
	l3.983,3.234V2.852z"/>
<path style="fill:#FFFFFF;" d="M11.941,12.348c-0.186,0-0.361-0.114-0.43-0.299c-0.089-0.238,0.031-0.504,0.269-0.593
	c1.384-0.521,2.315-1.876,2.315-3.371c0-1.494-0.931-2.847-2.316-3.366c-0.238-0.089-0.358-0.354-0.269-0.593
	c0.088-0.238,0.353-0.359,0.59-0.271c1.742,0.653,2.913,2.353,2.913,4.23s-1.17,3.579-2.911,4.234
	C12.049,12.339,11.995,12.348,11.941,12.348z M10.639,10.534c-0.215,0-0.406-0.152-0.45-0.371c-0.05-0.25,0.112-0.492,0.361-0.542
	c0.719-0.144,1.241-0.79,1.241-1.537c0-0.784-0.505-1.417-1.226-1.538c-0.25-0.042-0.419-0.279-0.377-0.531
	c0.042-0.251,0.274-0.421,0.529-0.378c1.155,0.194,1.993,1.222,1.993,2.447c0,1.185-0.833,2.212-1.98,2.441
	C10.7,10.532,10.669,10.534,10.639,10.534z"/>
</svg>
