<?xml version="1.0" encoding="utf-8"?>
<!-- Generator: Adobe Illustrator 17.1.0, SVG Export Plug-In . SVG Version: 6.00 Build 0)  -->
<!DOCTYPE svg PUBLIC "-//W3C//DTD SVG 1.1//EN" "http://www.w3.org/Graphics/SVG/1.1/DTD/svg11.dtd">
<svg version="1.1" id="图层_1" xmlns="http://www.w3.org/2000/svg" xmlns:xlink="http://www.w3.org/1999/xlink" x="0px" y="0px"
	 viewBox="0 0 14 17" enable-background="new 0 0 14 17" xml:space="preserve" width="14px" height="17px">
<path fill="#FFF" d="M7,1.1c0,0,1.5,1.5,3,1.9c0.9,0.2,1.8,0.3,2.4,0.3c0.3,0,0.5,0,0.5,0s0,0.3,0,2.7c0,9.1-6,10.1-6,10.1
	s-5.9-1-5.9-10.1c0-2.3,0-2.7,0-2.7s0.2,0,0.5,0c0.6,0,1.5,0,2.4-0.3C5.5,2.6,7,1.1,7,1.1 M7,0C6.8,0,6.6,0.1,6.4,0.2
	c0,0-1.3,1.4-2.6,1.7C2.9,2.1,2.1,2.1,1.6,2.1c-0.3,0-0.4,0-0.5,0c0,0,0,0-0.1,0c-0.3,0-0.5,0.1-0.7,0.3C0.1,2.6,0,2.9,0,3.2v2.7
	C0,15.7,6.5,16.9,6.8,17c0.1,0,0.1,0,0.2,0c0.1,0,0.1,0,0.2,0c0.3,0,6.8-1.3,6.8-11.2V3.2c0-0.3-0.1-0.6-0.3-0.8
	c-0.2-0.2-0.5-0.3-0.7-0.3c0,0,0,0-0.1,0c0,0-0.2,0-0.5,0c-0.4,0-1.3,0-2.2-0.2C9.2,1.6,7.9,0.4,7.6,0.2C7.4,0.1,7.2,0,7,0L7,0z"/>
</svg>
