<?xml version="1.0" encoding="utf-8"?>
<!-- Generator: Adobe Illustrator 17.1.0, SVG Export Plug-In . SVG Version: 6.00 Build 0)  -->
<!DOCTYPE svg PUBLIC "-//W3C//DTD SVG 1.1//EN" "http://www.w3.org/Graphics/SVG/1.1/DTD/svg11.dtd">
<svg version="1.1" id="图层_1" xmlns="http://www.w3.org/2000/svg" xmlns:xlink="http://www.w3.org/1999/xlink" x="0px" y="0px"
	 viewBox="0 0 100.3 93" enable-background="new 0 0 100.3 93" xml:space="preserve" width="102px" height="90px">
<g>
	<path fill="#D3D3D4" d="M50.3,84.9c-22.1,0-40-17.9-40-40c0-22.1,17.9-40,40-40c22.1,0,40,17.9,40,40
		C90.3,66.9,72.4,84.9,50.3,84.9z M50.3,9.9c-19.3,0-35,15.7-35,35c0,19.3,15.7,35,35,35c19.3,0,35-15.7,35-35
		C85.4,25.6,69.6,9.9,50.3,9.9z"/>
	<path fill="#D3D3D4" d="M51.4,84.9c-11.9,0-23.7-17.6-23.7-40c0-22.4,11.8-40,23.7-40c11.9,0,21.3,17.6,21.3,40
		C72.7,67.3,63.3,84.9,51.4,84.9z M50.4,9.9c-9.4,0-17.7,16-17.7,35c0,19,8.3,35,17.7,35c9.4,0,17.4-16,17.4-35
		C67.8,25.9,59.8,9.9,50.4,9.9z"/>
	<path fill="#D3D3D4" d="M50.3,37.3c-23.1,0-33.2-2.9-33.7-3.1l1.4-4.8c0.1,0,10,2.9,32.2,2.9c22.8,0,31.5-3,31.6-3l1.7,4.7
		C83.2,34.2,74,37.3,50.3,37.3z"/>
	<path fill="#D3D3D4" d="M81.9,62.7c-0.1,0-9-3-31.6-3c-22.2,0-32.1,2.8-32.2,2.9l-1.4-4.8c0.4-0.1,10.6-3.1,33.7-3.1
		c23.7,0,32.9,3.2,33.3,3.3L81.9,62.7z"/>
	<path fill="#D3D3D4" d="M52.7,82.4h-5v-75h5V82.4z"/>
</g>
</svg>
