<?xml version="1.0" encoding="iso-8859-1"?>
<!-- Generator: Adobe Illustrator 17.0.1, SVG Export Plug-In . SVG Version: 6.00 Build 0)  -->
<!DOCTYPE svg PUBLIC "-//W3C//DTD SVG 1.1//EN" "http://www.w3.org/Graphics/SVG/1.1/DTD/svg11.dtd">
<svg version="1.1" id="&#x56FE;&#x5C42;_1" xmlns="http://www.w3.org/2000/svg" xmlns:xlink="http://www.w3.org/1999/xlink" x="0px"
	 y="0px" width="17.012px" height="16.013px" viewBox="0 0 17.012 16.013" style="enable-background:new 0 0 17.012 16.013;"
	 xml:space="preserve">
<path style="fill:#FFFFFF;" d="M8.506,1.778l1.745,3.456l0.307,0.606l0.698,0.099l3.967,0.563l-2.893,2.756l-0.486,0.463
	l0.113,0.646l0.676,3.849l-3.495-1.795l-0.632-0.325l-0.632,0.325l-3.496,1.796l0.676-3.85l0.113-0.646L4.681,9.258L1.79,6.502
	l3.966-0.563L6.454,5.84l0.306-0.606L8.506,1.778 M8.505,0C8.03,0,7.596,0.261,7.394,0.669L5.47,4.549l-4.427,0.64
	C0.588,5.255,0.21,5.557,0.063,5.97c-0.146,0.413-0.035,0.869,0.286,1.18l3.244,3.148L2.84,14.662
	c-0.076,0.44,0.12,0.881,0.504,1.138c0.211,0.141,0.459,0.212,0.708,0.212c0.204,0,0.409-0.048,0.594-0.145l3.859-2.019l3.86,2.019
	c0.186,0.096,0.39,0.145,0.594,0.145c0.248,0,0.496-0.072,0.708-0.212c0.384-0.257,0.579-0.698,0.503-1.138l-0.752-4.365
	l3.245-3.148c0.321-0.31,0.431-0.766,0.285-1.18c-0.147-0.413-0.524-0.715-0.979-0.781l-4.426-0.64L9.618,0.669
	C9.416,0.261,8.982,0,8.505,0L8.505,0z"/>
</svg>